<svg width="400" height="400" viewBox="0 0 400 400" xmlns="http://www.w3.org/2000/svg">
<defs>
    <filter id="shadow" x="-20%" y="-20%" width="140%" height="140%">
        <feDropShadow dx="2" dy="4" stdDeviation="3" flood-opacity="0.3"/>
    </filter>
    <filter id="glow" x="-50%" y="-50%" width="200%" height="200%">
        <feGaussianBlur stdDeviation="8" result="blur"/>
        <feMerge><feMergeNode in="blur"/><feMergeNode in="SourceGraphic"/></feMerge>
    </filter>
    <linearGradient id="rainbow-body" x1="0%" y1="0%" x2="100%" y2="100%">
        <stop offset="0%" stop-color="#FF6B6B"/><stop offset="25%" stop-color="#FFE66D"/>
        <stop offset="50%" stop-color="#4ECDC4"/><stop offset="75%" stop-color="#45B7D1"/>
        <stop offset="100%" stop-color="#DDA0DD"/>
    </linearGradient>
    <radialGradient id="galaxy-body" cx="30%" cy="30%">
        <stop offset="0%" stop-color="#E6E6FA"/><stop offset="50%" stop-color="#9370DB"/>
        <stop offset="100%" stop-color="#1A0033"/>
    </radialGradient>
    <linearGradient id="holo-body" x1="0%" y1="0%" x2="100%" y2="100%">
        <stop offset="0%" stop-color="#FF00FF"/><stop offset="50%" stop-color="#00FFFF"/>
        <stop offset="100%" stop-color="#FFFF00"/>
    </linearGradient>
    <linearGradient id="sky-gradient" x1="0%" y1="0%" x2="0%" y2="100%">
        <stop offset="0%" stop-color="#87CEEB"/><stop offset="100%" stop-color="#E0F4FF"/>
    </linearGradient>
    <linearGradient id="grass-gradient" x1="0%" y1="0%" x2="0%" y2="100%">
        <stop offset="0%" stop-color="#90EE90"/><stop offset="100%" stop-color="#228B22"/>
    </linearGradient>
    <linearGradient id="sunset-gradient" x1="0%" y1="0%" x2="0%" y2="100%">
        <stop offset="0%" stop-color="#FF6B6B"/><stop offset="50%" stop-color="#FFE66D"/>
        <stop offset="100%" stop-color="#4ECDC4"/>
    </linearGradient>
    <linearGradient id="aurora-gradient" x1="0%" y1="0%" x2="100%" y2="100%">
        <stop offset="0%" stop-color="#0D1B2A"/><stop offset="30%" stop-color="#00FF7F"/>
        <stop offset="70%" stop-color="#FF00FF"/><stop offset="100%" stop-color="#0D1B2A"/>
    </linearGradient>
    <radialGradient id="multiverse-gradient" cx="50%" cy="50%">
        <stop offset="0%" stop-color="#FFD700"/><stop offset="40%" stop-color="#FF00FF"/>
        <stop offset="70%" stop-color="#00FFFF"/><stop offset="100%" stop-color="#000"/>
    </radialGradient>
    <linearGradient id="rift-gradient" x1="0%" y1="0%" x2="100%" y2="100%">
        <stop offset="0%" stop-color="#000"/><stop offset="30%" stop-color="#9400D3"/>
        <stop offset="50%" stop-color="#00FFFF"/><stop offset="70%" stop-color="#9400D3"/>
        <stop offset="100%" stop-color="#000"/>
    </linearGradient>
    <linearGradient id="heaven-gradient" x1="0%" y1="0%" x2="0%" y2="100%">
        <stop offset="0%" stop-color="#FFF"/><stop offset="50%" stop-color="#FFD700" stop-opacity="0.3"/>
        <stop offset="100%" stop-color="#F0F8FF"/>
    </linearGradient>
    <clipPath id="head-clip"><ellipse cx="200" cy="200" rx="110" ry="115"/></clipPath>
</defs>
<rect width="400" height="400" fill="#2C3E50"/>
<rect x="0" y="310" width="50" height="90" fill="#1A202C"/>
<rect x="8" y="320" width="6" height="8" fill="#FFD700" opacity="0.6"/>
<rect x="22" y="320" width="6" height="8" fill="#FFD700" opacity="0.6"/>
<rect x="8" y="338" width="6" height="8" fill="#FFD700" opacity="0.6"/>
<rect x="22" y="338" width="6" height="8" fill="#FFD700" opacity="0.6"/>
<rect x="8" y="356" width="6" height="8" fill="#FFD700" opacity="0.6"/>
<rect x="22" y="356" width="6" height="8" fill="#FFD700" opacity="0.6"/>
<rect x="8" y="374" width="6" height="8" fill="#FFD700" opacity="0.6"/>
<rect x="22" y="374" width="6" height="8" fill="#FFD700" opacity="0.6"/>
<rect x="60" y="290" width="50" height="110" fill="#1A202C"/>
<rect x="82" y="300" width="6" height="8" fill="#FFD700" opacity="0.6"/>
<rect x="96" y="300" width="6" height="8" fill="#FFD700" opacity="0.6"/>
<rect x="82" y="318" width="6" height="8" fill="#FFD700" opacity="0.6"/>
<rect x="96" y="318" width="6" height="8" fill="#FFD700" opacity="0.6"/>
<rect x="82" y="336" width="6" height="8" fill="#FFD700" opacity="0.6"/>
<rect x="96" y="336" width="6" height="8" fill="#FFD700" opacity="0.6"/>
<rect x="82" y="354" width="6" height="8" fill="#FFD700" opacity="0.6"/>
<rect x="96" y="354" width="6" height="8" fill="#FFD700" opacity="0.6"/>
<rect x="82" y="372" width="6" height="8" fill="#FFD700" opacity="0.6"/>
<rect x="96" y="372" width="6" height="8" fill="#FFD700" opacity="0.6"/>
<rect x="120" y="270" width="50" height="130" fill="#1A202C"/>
<rect x="128" y="280" width="6" height="8" fill="#FFD700" opacity="0.6"/>
<rect x="156" y="280" width="6" height="8" fill="#FFD700" opacity="0.6"/>
<rect x="128" y="298" width="6" height="8" fill="#FFD700" opacity="0.6"/>
<rect x="156" y="298" width="6" height="8" fill="#FFD700" opacity="0.6"/>
<rect x="128" y="316" width="6" height="8" fill="#FFD700" opacity="0.6"/>
<rect x="156" y="316" width="6" height="8" fill="#FFD700" opacity="0.6"/>
<rect x="128" y="334" width="6" height="8" fill="#FFD700" opacity="0.6"/>
<rect x="156" y="334" width="6" height="8" fill="#FFD700" opacity="0.6"/>
<rect x="128" y="352" width="6" height="8" fill="#FFD700" opacity="0.6"/>
<rect x="156" y="352" width="6" height="8" fill="#FFD700" opacity="0.6"/>
<rect x="128" y="370" width="6" height="8" fill="#FFD700" opacity="0.6"/>
<rect x="156" y="370" width="6" height="8" fill="#FFD700" opacity="0.6"/>
<rect x="128" y="388" width="6" height="8" fill="#FFD700" opacity="0.6"/>
<rect x="156" y="388" width="6" height="8" fill="#FFD700" opacity="0.6"/>
<rect x="180" y="250" width="50" height="150" fill="#1A202C"/>
<rect x="188" y="260" width="6" height="8" fill="#FFD700" opacity="0.6"/>
<rect x="202" y="260" width="6" height="8" fill="#FFD700" opacity="0.6"/>
<rect x="188" y="278" width="6" height="8" fill="#FFD700" opacity="0.6"/>
<rect x="202" y="278" width="6" height="8" fill="#FFD700" opacity="0.6"/>
<rect x="188" y="296" width="6" height="8" fill="#FFD700" opacity="0.6"/>
<rect x="202" y="296" width="6" height="8" fill="#FFD700" opacity="0.6"/>
<rect x="188" y="314" width="6" height="8" fill="#FFD700" opacity="0.6"/>
<rect x="202" y="314" width="6" height="8" fill="#FFD700" opacity="0.6"/>
<rect x="188" y="332" width="6" height="8" fill="#FFD700" opacity="0.6"/>
<rect x="202" y="332" width="6" height="8" fill="#FFD700" opacity="0.6"/>
<rect x="188" y="350" width="6" height="8" fill="#FFD700" opacity="0.6"/>
<rect x="202" y="350" width="6" height="8" fill="#FFD700" opacity="0.6"/>
<rect x="188" y="368" width="6" height="8" fill="#FFD700" opacity="0.6"/>
<rect x="202" y="368" width="6" height="8" fill="#FFD700" opacity="0.6"/>
<rect x="188" y="386" width="6" height="8" fill="#FFD700" opacity="0.6"/>
<rect x="202" y="386" width="6" height="8" fill="#FFD700" opacity="0.6"/>
<rect x="240" y="320" width="50" height="80" fill="#1A202C"/>
<rect x="262" y="330" width="6" height="8" fill="#FFD700" opacity="0.6"/>
<rect x="276" y="330" width="6" height="8" fill="#FFD700" opacity="0.6"/>
<rect x="262" y="348" width="6" height="8" fill="#FFD700" opacity="0.6"/>
<rect x="276" y="348" width="6" height="8" fill="#FFD700" opacity="0.6"/>
<rect x="262" y="366" width="6" height="8" fill="#FFD700" opacity="0.6"/>
<rect x="276" y="366" width="6" height="8" fill="#FFD700" opacity="0.6"/>
<rect x="262" y="384" width="6" height="8" fill="#FFD700" opacity="0.6"/>
<rect x="276" y="384" width="6" height="8" fill="#FFD700" opacity="0.6"/>
<rect x="300" y="300" width="50" height="100" fill="#1A202C"/>
<rect x="308" y="310" width="6" height="8" fill="#FFD700" opacity="0.6"/>
<rect x="336" y="310" width="6" height="8" fill="#FFD700" opacity="0.6"/>
<rect x="308" y="328" width="6" height="8" fill="#FFD700" opacity="0.6"/>
<rect x="336" y="328" width="6" height="8" fill="#FFD700" opacity="0.6"/>
<rect x="308" y="346" width="6" height="8" fill="#FFD700" opacity="0.6"/>
<rect x="336" y="346" width="6" height="8" fill="#FFD700" opacity="0.6"/>
<rect x="308" y="364" width="6" height="8" fill="#FFD700" opacity="0.6"/>
<rect x="336" y="364" width="6" height="8" fill="#FFD700" opacity="0.6"/>
<rect x="308" y="382" width="6" height="8" fill="#FFD700" opacity="0.6"/>
<rect x="336" y="382" width="6" height="8" fill="#FFD700" opacity="0.6"/>
<rect x="360" y="280" width="50" height="120" fill="#1A202C"/>
<rect x="368" y="290" width="6" height="8" fill="#FFD700" opacity="0.6"/>
<rect x="382" y="290" width="6" height="8" fill="#FFD700" opacity="0.6"/>
<rect x="368" y="308" width="6" height="8" fill="#FFD700" opacity="0.6"/>
<rect x="382" y="308" width="6" height="8" fill="#FFD700" opacity="0.6"/>
<rect x="368" y="326" width="6" height="8" fill="#FFD700" opacity="0.6"/>
<rect x="382" y="326" width="6" height="8" fill="#FFD700" opacity="0.6"/>
<rect x="368" y="344" width="6" height="8" fill="#FFD700" opacity="0.6"/>
<rect x="382" y="344" width="6" height="8" fill="#FFD700" opacity="0.6"/>
<rect x="368" y="362" width="6" height="8" fill="#FFD700" opacity="0.6"/>
<rect x="382" y="362" width="6" height="8" fill="#FFD700" opacity="0.6"/>
<rect x="368" y="380" width="6" height="8" fill="#FFD700" opacity="0.6"/>
<rect x="382" y="380" width="6" height="8" fill="#FFD700" opacity="0.6"/>

<ellipse cx="115" cy="140" rx="45" ry="50" fill="#32CD32" filter="url(#shadow)"/>
<ellipse cx="115" cy="140" rx="30" ry="35" fill="#FFB6C1"/>
<ellipse cx="115" cy="145" rx="18" ry="22" fill="#FF9999"/>
<ellipse cx="285" cy="140" rx="45" ry="50" fill="#32CD32" filter="url(#shadow)"/>
<ellipse cx="285" cy="140" rx="30" ry="35" fill="#FFB6C1"/>
<ellipse cx="285" cy="145" rx="18" ry="22" fill="#FF9999"/>
<ellipse cx="200" cy="200" rx="110" ry="115" fill="#32CD32" filter="url(#shadow)"/>
<ellipse cx="180" cy="140" rx="50" ry="30" fill="#7CFC00" opacity="0.3"/>
<g clip-path="url(#head-clip)"><text x="125" y="125" font-size="18" fill="#00CED1" opacity="0.35">◆</text><text x="195" y="235" font-size="18" fill="#00CED1" opacity="0.35">◆</text><text x="265" y="195" font-size="18" fill="#00CED1" opacity="0.35">◆</text><text x="185" y="155" font-size="18" fill="#00CED1" opacity="0.35">◆</text><text x="255" y="265" font-size="18" fill="#00CED1" opacity="0.35">◆</text><text x="175" y="225" font-size="18" fill="#00CED1" opacity="0.35">◆</text><text x="245" y="185" font-size="18" fill="#00CED1" opacity="0.35">◆</text><text x="165" y="145" font-size="18" fill="#00CED1" opacity="0.35">◆</text></g>
<ellipse cx="200" cy="235" rx="70" ry="60" fill="#FFDAB9"/>
<ellipse cx="200" cy="250" rx="55" ry="40" fill="#DEB887" opacity="0.3"/>
<ellipse cx="162" cy="185" rx="22" ry="24" fill="#000" opacity="0.08"/>
<ellipse cx="238" cy="185" rx="22" ry="24" fill="#000" opacity="0.08"/>
<ellipse cx="162" cy="185" rx="18" ry="8" fill="white"/>
<ellipse cx="162" cy="187" rx="10" ry="5" fill="#3D2314"/>
<ellipse cx="238" cy="185" rx="18" ry="8" fill="white"/>
<ellipse cx="238" cy="187" rx="10" ry="5" fill="#3D2314"/>
<g>
            <ellipse cx="200" cy="230" rx="25" ry="18" fill="#8B4513"/>
            <ellipse cx="200" cy="230" rx="22" ry="15" fill="#A0522D"/>
            <ellipse cx="192" cy="230" rx="5" ry="7" fill="#5D2E0C"/>
            <ellipse cx="208" cy="230" rx="5" ry="7" fill="#5D2E0C"/>
        </g>
<line x1="182" y1="260" x2="218" y2="260" stroke="#5D2E0C" stroke-width="2"/>

<circle cx="200" cy="200" r="135" fill="none" stroke="#FFD700" stroke-width="6" opacity="0.25"/>
<g transform="translate(325, 15)">
            <rect width="65" height="22" rx="4" fill="#A0A0A0" opacity="0.9"/>
            <text x="32" y="15" font-size="8" fill="#FFF" text-anchor="middle" font-family="sans-serif" font-weight="bold">COMMON</text>
        </g>
        <g transform="translate(10, 15)">
            <rect width="45" height="22" rx="4" fill="#333" opacity="0.8"/>
            <text x="22" y="15" font-size="9" fill="#FFF" text-anchor="middle" font-family="sans-serif">Gen 2</text>
        </g>
</svg>