<svg width="400" height="400" viewBox="0 0 400 400" xmlns="http://www.w3.org/2000/svg">
<defs>
    <filter id="shadow" x="-20%" y="-20%" width="140%" height="140%">
        <feDropShadow dx="2" dy="4" stdDeviation="3" flood-opacity="0.3"/>
    </filter>
    <filter id="glow" x="-50%" y="-50%" width="200%" height="200%">
        <feGaussianBlur stdDeviation="8" result="blur"/>
        <feMerge><feMergeNode in="blur"/><feMergeNode in="SourceGraphic"/></feMerge>
    </filter>
    <linearGradient id="rainbow-body" x1="0%" y1="0%" x2="100%" y2="100%">
        <stop offset="0%" stop-color="#FF6B6B"/><stop offset="25%" stop-color="#FFE66D"/>
        <stop offset="50%" stop-color="#4ECDC4"/><stop offset="75%" stop-color="#45B7D1"/>
        <stop offset="100%" stop-color="#DDA0DD"/>
    </linearGradient>
    <radialGradient id="galaxy-body" cx="30%" cy="30%">
        <stop offset="0%" stop-color="#E6E6FA"/><stop offset="50%" stop-color="#9370DB"/>
        <stop offset="100%" stop-color="#1A0033"/>
    </radialGradient>
    <linearGradient id="holo-body" x1="0%" y1="0%" x2="100%" y2="100%">
        <stop offset="0%" stop-color="#FF00FF"/><stop offset="50%" stop-color="#00FFFF"/>
        <stop offset="100%" stop-color="#FFFF00"/>
    </linearGradient>
    <linearGradient id="sky-gradient" x1="0%" y1="0%" x2="0%" y2="100%">
        <stop offset="0%" stop-color="#87CEEB"/><stop offset="100%" stop-color="#E0F4FF"/>
    </linearGradient>
    <linearGradient id="grass-gradient" x1="0%" y1="0%" x2="0%" y2="100%">
        <stop offset="0%" stop-color="#90EE90"/><stop offset="100%" stop-color="#228B22"/>
    </linearGradient>
    <linearGradient id="sunset-gradient" x1="0%" y1="0%" x2="0%" y2="100%">
        <stop offset="0%" stop-color="#FF6B6B"/><stop offset="50%" stop-color="#FFE66D"/>
        <stop offset="100%" stop-color="#4ECDC4"/>
    </linearGradient>
    <linearGradient id="aurora-gradient" x1="0%" y1="0%" x2="100%" y2="100%">
        <stop offset="0%" stop-color="#0D1B2A"/><stop offset="30%" stop-color="#00FF7F"/>
        <stop offset="70%" stop-color="#FF00FF"/><stop offset="100%" stop-color="#0D1B2A"/>
    </linearGradient>
    <radialGradient id="multiverse-gradient" cx="50%" cy="50%">
        <stop offset="0%" stop-color="#FFD700"/><stop offset="40%" stop-color="#FF00FF"/>
        <stop offset="70%" stop-color="#00FFFF"/><stop offset="100%" stop-color="#000"/>
    </radialGradient>
    <linearGradient id="rift-gradient" x1="0%" y1="0%" x2="100%" y2="100%">
        <stop offset="0%" stop-color="#000"/><stop offset="30%" stop-color="#9400D3"/>
        <stop offset="50%" stop-color="#00FFFF"/><stop offset="70%" stop-color="#9400D3"/>
        <stop offset="100%" stop-color="#000"/>
    </linearGradient>
    <linearGradient id="heaven-gradient" x1="0%" y1="0%" x2="0%" y2="100%">
        <stop offset="0%" stop-color="#FFF"/><stop offset="50%" stop-color="#FFD700" stop-opacity="0.3"/>
        <stop offset="100%" stop-color="#F0F8FF"/>
    </linearGradient>
    <clipPath id="head-clip"><ellipse cx="200" cy="200" rx="110" ry="115"/></clipPath>
</defs>
<rect width="400" height="400" fill="#2C3E50"/>
<rect x="0" y="271" width="50" height="129" fill="#1A202C"/>
<rect x="8" y="281" width="6" height="8" fill="#FFD700" opacity="0.6"/>
<rect x="22" y="281" width="6" height="8" fill="#FFD700" opacity="0.6"/>
<rect x="8" y="299" width="6" height="8" fill="#FFD700" opacity="0.6"/>
<rect x="22" y="299" width="6" height="8" fill="#FFD700" opacity="0.6"/>
<rect x="8" y="317" width="6" height="8" fill="#FFD700" opacity="0.6"/>
<rect x="22" y="317" width="6" height="8" fill="#FFD700" opacity="0.6"/>
<rect x="8" y="335" width="6" height="8" fill="#FFD700" opacity="0.6"/>
<rect x="22" y="335" width="6" height="8" fill="#FFD700" opacity="0.6"/>
<rect x="8" y="353" width="6" height="8" fill="#FFD700" opacity="0.6"/>
<rect x="22" y="353" width="6" height="8" fill="#FFD700" opacity="0.6"/>
<rect x="8" y="371" width="6" height="8" fill="#FFD700" opacity="0.6"/>
<rect x="22" y="371" width="6" height="8" fill="#FFD700" opacity="0.6"/>
<rect x="8" y="389" width="6" height="8" fill="#FFD700" opacity="0.6"/>
<rect x="22" y="389" width="6" height="8" fill="#FFD700" opacity="0.6"/>
<rect x="60" y="302" width="50" height="98" fill="#1A202C"/>
<rect x="82" y="312" width="6" height="8" fill="#FFD700" opacity="0.6"/>
<rect x="96" y="312" width="6" height="8" fill="#FFD700" opacity="0.6"/>
<rect x="82" y="330" width="6" height="8" fill="#FFD700" opacity="0.6"/>
<rect x="96" y="330" width="6" height="8" fill="#FFD700" opacity="0.6"/>
<rect x="82" y="348" width="6" height="8" fill="#FFD700" opacity="0.6"/>
<rect x="96" y="348" width="6" height="8" fill="#FFD700" opacity="0.6"/>
<rect x="82" y="366" width="6" height="8" fill="#FFD700" opacity="0.6"/>
<rect x="96" y="366" width="6" height="8" fill="#FFD700" opacity="0.6"/>
<rect x="82" y="384" width="6" height="8" fill="#FFD700" opacity="0.6"/>
<rect x="96" y="384" width="6" height="8" fill="#FFD700" opacity="0.6"/>
<rect x="120" y="243" width="50" height="157" fill="#1A202C"/>
<rect x="128" y="253" width="6" height="8" fill="#FFD700" opacity="0.6"/>
<rect x="156" y="253" width="6" height="8" fill="#FFD700" opacity="0.6"/>
<rect x="128" y="271" width="6" height="8" fill="#FFD700" opacity="0.6"/>
<rect x="156" y="271" width="6" height="8" fill="#FFD700" opacity="0.6"/>
<rect x="128" y="289" width="6" height="8" fill="#FFD700" opacity="0.6"/>
<rect x="156" y="289" width="6" height="8" fill="#FFD700" opacity="0.6"/>
<rect x="128" y="307" width="6" height="8" fill="#FFD700" opacity="0.6"/>
<rect x="156" y="307" width="6" height="8" fill="#FFD700" opacity="0.6"/>
<rect x="128" y="325" width="6" height="8" fill="#FFD700" opacity="0.6"/>
<rect x="156" y="325" width="6" height="8" fill="#FFD700" opacity="0.6"/>
<rect x="128" y="343" width="6" height="8" fill="#FFD700" opacity="0.6"/>
<rect x="156" y="343" width="6" height="8" fill="#FFD700" opacity="0.6"/>
<rect x="128" y="361" width="6" height="8" fill="#FFD700" opacity="0.6"/>
<rect x="156" y="361" width="6" height="8" fill="#FFD700" opacity="0.6"/>
<rect x="128" y="379" width="6" height="8" fill="#FFD700" opacity="0.6"/>
<rect x="156" y="379" width="6" height="8" fill="#FFD700" opacity="0.6"/>
<rect x="180" y="274" width="50" height="126" fill="#1A202C"/>
<rect x="188" y="284" width="6" height="8" fill="#FFD700" opacity="0.6"/>
<rect x="202" y="284" width="6" height="8" fill="#FFD700" opacity="0.6"/>
<rect x="188" y="302" width="6" height="8" fill="#FFD700" opacity="0.6"/>
<rect x="202" y="302" width="6" height="8" fill="#FFD700" opacity="0.6"/>
<rect x="188" y="320" width="6" height="8" fill="#FFD700" opacity="0.6"/>
<rect x="202" y="320" width="6" height="8" fill="#FFD700" opacity="0.6"/>
<rect x="188" y="338" width="6" height="8" fill="#FFD700" opacity="0.6"/>
<rect x="202" y="338" width="6" height="8" fill="#FFD700" opacity="0.6"/>
<rect x="188" y="356" width="6" height="8" fill="#FFD700" opacity="0.6"/>
<rect x="202" y="356" width="6" height="8" fill="#FFD700" opacity="0.6"/>
<rect x="188" y="374" width="6" height="8" fill="#FFD700" opacity="0.6"/>
<rect x="202" y="374" width="6" height="8" fill="#FFD700" opacity="0.6"/>
<rect x="240" y="305" width="50" height="95" fill="#1A202C"/>
<rect x="262" y="315" width="6" height="8" fill="#FFD700" opacity="0.6"/>
<rect x="276" y="315" width="6" height="8" fill="#FFD700" opacity="0.6"/>
<rect x="262" y="333" width="6" height="8" fill="#FFD700" opacity="0.6"/>
<rect x="276" y="333" width="6" height="8" fill="#FFD700" opacity="0.6"/>
<rect x="262" y="351" width="6" height="8" fill="#FFD700" opacity="0.6"/>
<rect x="276" y="351" width="6" height="8" fill="#FFD700" opacity="0.6"/>
<rect x="262" y="369" width="6" height="8" fill="#FFD700" opacity="0.6"/>
<rect x="276" y="369" width="6" height="8" fill="#FFD700" opacity="0.6"/>
<rect x="262" y="387" width="6" height="8" fill="#FFD700" opacity="0.6"/>
<rect x="276" y="387" width="6" height="8" fill="#FFD700" opacity="0.6"/>
<rect x="300" y="246" width="50" height="154" fill="#1A202C"/>
<rect x="308" y="256" width="6" height="8" fill="#FFD700" opacity="0.6"/>
<rect x="336" y="256" width="6" height="8" fill="#FFD700" opacity="0.6"/>
<rect x="308" y="274" width="6" height="8" fill="#FFD700" opacity="0.6"/>
<rect x="336" y="274" width="6" height="8" fill="#FFD700" opacity="0.6"/>
<rect x="308" y="292" width="6" height="8" fill="#FFD700" opacity="0.6"/>
<rect x="336" y="292" width="6" height="8" fill="#FFD700" opacity="0.6"/>
<rect x="308" y="310" width="6" height="8" fill="#FFD700" opacity="0.6"/>
<rect x="336" y="310" width="6" height="8" fill="#FFD700" opacity="0.6"/>
<rect x="308" y="328" width="6" height="8" fill="#FFD700" opacity="0.6"/>
<rect x="336" y="328" width="6" height="8" fill="#FFD700" opacity="0.6"/>
<rect x="308" y="346" width="6" height="8" fill="#FFD700" opacity="0.6"/>
<rect x="336" y="346" width="6" height="8" fill="#FFD700" opacity="0.6"/>
<rect x="308" y="364" width="6" height="8" fill="#FFD700" opacity="0.6"/>
<rect x="336" y="364" width="6" height="8" fill="#FFD700" opacity="0.6"/>
<rect x="308" y="382" width="6" height="8" fill="#FFD700" opacity="0.6"/>
<rect x="336" y="382" width="6" height="8" fill="#FFD700" opacity="0.6"/>
<rect x="360" y="277" width="50" height="123" fill="#1A202C"/>
<rect x="368" y="287" width="6" height="8" fill="#FFD700" opacity="0.6"/>
<rect x="382" y="287" width="6" height="8" fill="#FFD700" opacity="0.6"/>
<rect x="368" y="305" width="6" height="8" fill="#FFD700" opacity="0.6"/>
<rect x="382" y="305" width="6" height="8" fill="#FFD700" opacity="0.6"/>
<rect x="368" y="323" width="6" height="8" fill="#FFD700" opacity="0.6"/>
<rect x="382" y="323" width="6" height="8" fill="#FFD700" opacity="0.6"/>
<rect x="368" y="341" width="6" height="8" fill="#FFD700" opacity="0.6"/>
<rect x="382" y="341" width="6" height="8" fill="#FFD700" opacity="0.6"/>
<rect x="368" y="359" width="6" height="8" fill="#FFD700" opacity="0.6"/>
<rect x="382" y="359" width="6" height="8" fill="#FFD700" opacity="0.6"/>
<rect x="368" y="377" width="6" height="8" fill="#FFD700" opacity="0.6"/>
<rect x="382" y="377" width="6" height="8" fill="#FFD700" opacity="0.6"/>

<ellipse cx="115" cy="140" rx="45" ry="50" fill="#FFD700" filter="url(#shadow)"/>
<ellipse cx="115" cy="140" rx="30" ry="35" fill="#FFB6C1"/>
<ellipse cx="115" cy="145" rx="18" ry="22" fill="#FF9999"/>
<ellipse cx="285" cy="140" rx="45" ry="50" fill="#FFD700" filter="url(#shadow)"/>
<ellipse cx="285" cy="140" rx="30" ry="35" fill="#FFB6C1"/>
<ellipse cx="285" cy="145" rx="18" ry="22" fill="#FF9999"/>
<ellipse cx="200" cy="200" rx="110" ry="115" fill="#FFD700" filter="url(#shadow)"/>
<ellipse cx="180" cy="140" rx="50" ry="30" fill="#FFEC8B" opacity="0.3"/>
<g clip-path="url(#head-clip)"><ellipse cx="200" cy="200" rx="110" ry="115" fill="url(#sky-gradient)" opacity="0.25"/></g>
<ellipse cx="200" cy="235" rx="70" ry="60" fill="#FFDAB9"/>
<ellipse cx="200" cy="250" rx="55" ry="40" fill="#DEB887" opacity="0.3"/>
<ellipse cx="162" cy="185" rx="22" ry="24" fill="#000" opacity="0.08"/>
<ellipse cx="238" cy="185" rx="22" ry="24" fill="#000" opacity="0.08"/>
<ellipse cx="162" cy="185" rx="18" ry="8" fill="white"/>
<ellipse cx="162" cy="187" rx="10" ry="5" fill="#3D2314"/>
<ellipse cx="238" cy="185" rx="18" ry="8" fill="white"/>
<ellipse cx="238" cy="187" rx="10" ry="5" fill="#3D2314"/>
<g>
            <ellipse cx="200" cy="230" rx="25" ry="18" fill="#8B4513"/>
            <ellipse cx="200" cy="230" rx="22" ry="15" fill="#A0522D"/>
            <ellipse cx="192" cy="230" rx="5" ry="7" fill="#5D2E0C"/>
            <ellipse cx="208" cy="230" rx="5" ry="7" fill="#5D2E0C"/>
        </g>
<line x1="182" y1="260" x2="218" y2="260" stroke="#5D2E0C" stroke-width="2"/>

<circle cx="200" cy="200" r="135" fill="none" stroke="#FFD700" stroke-width="6" opacity="0.25"/>
<g transform="translate(325, 15)">
            <rect width="65" height="22" rx="4" fill="#A0A0A0" opacity="0.9"/>
            <text x="32" y="15" font-size="8" fill="#FFF" text-anchor="middle" font-family="sans-serif" font-weight="bold">COMMON</text>
        </g>
        <g transform="translate(10, 15)">
            <rect width="45" height="22" rx="4" fill="#333" opacity="0.8"/>
            <text x="22" y="15" font-size="9" fill="#FFF" text-anchor="middle" font-family="sans-serif">Gen 2</text>
        </g>
</svg>